<svg xmlns="http://www.w3.org/2000/svg" width="1024" height="1024" fill="#ffffff" version="1.1" stroke="#ffffff"><rect id="backgroundrect" width="100%" height="100%" x="0" y="0" fill="none" stroke="none"/>







<g class="currentLayer" style=""><title>Layer 1</title><g id="SVGRepo_bgCarrier" stroke-width="0"/><g id="SVGRepo_tracerCarrier" stroke-linecap="round" stroke-linejoin="round"/><g id="SVGRepo_iconCarrier" class="selected" stroke-opacity="1" stroke="#102e5b" fill-opacity="1" fill="#102e5b">

<path d="M176.662 817.173c-8.19 8.471-7.96 21.977 0.51 30.165 8.472 8.19 21.978 7.96 30.166-0.51l618.667-640c8.189-8.472 7.96-21.978-0.511-30.166-8.471-8.19-21.977-7.96-30.166 0.51l-618.666 640z" fill="#102e5b" id="svg_1" stroke="#102e5b"/>

<path d="M795.328 846.827c8.19 8.471 21.695 8.7 30.166 0.511 8.471-8.188 8.7-21.694 0.511-30.165l-618.667-640c-8.188-8.471-21.694-8.7-30.165-0.511-8.471 8.188-8.7 21.694-0.511 30.165l618.666 640z" fill="#102e5b" id="svg_2" stroke="#102e5b"/>

</g></g></svg>