<svg width="16" height="20" viewBox="0 0 16 20" fill="none" xmlns="http://www.w3.org/2000/svg">
<path d="M9.305 13.87L7.515 14.245C7.41306 14.2668 7.30923 14.2785 7.205 14.28C6.80747 14.2788 6.4265 14.1207 6.145 13.84C5.96829 13.6637 5.83862 13.446 5.76787 13.2066C5.69711 12.9673 5.68753 12.714 5.74 12.47L6.115 10.68C6.17282 10.3929 6.31568 10.1298 6.525 9.925L11.23 5.22C11.3141 5.13663 11.4043 5.05974 11.5 4.99V2.5C11.4988 2.10254 11.3404 1.7217 11.0593 1.44065C10.7783 1.1596 10.3975 1.00119 10 1H3C2.60254 1.00119 2.2217 1.1596 1.94065 1.44065C1.6596 1.7217 1.50119 2.10254 1.5 2.5V13.5C1.50119 13.8975 1.6596 14.2783 1.94065 14.5593C2.2217 14.8404 2.60254 14.9988 3 15H10C10.3975 14.9988 10.7783 14.8404 11.0593 14.5593C11.3404 14.2783 11.4988 13.8975 11.5 13.5V12.02L10.06 13.46C9.85517 13.6693 9.5921 13.8122 9.305 13.87ZM4 3H9C9.13261 3 9.25979 3.05268 9.35355 3.14645C9.44732 3.24021 9.5 3.36739 9.5 3.5C9.5 3.63261 9.44732 3.75979 9.35355 3.85355C9.25979 3.94732 9.13261 4 9 4H4C3.86739 4 3.74021 3.94732 3.64645 3.85355C3.55268 3.75979 3.5 3.63261 3.5 3.5C3.5 3.36739 3.55268 3.24021 3.64645 3.14645C3.74021 3.05268 3.86739 3 4 3ZM4 5H9C9.13261 5 9.25979 5.05268 9.35355 5.14645C9.44732 5.24021 9.5 5.36739 9.5 5.5C9.5 5.63261 9.44732 5.75979 9.35355 5.85355C9.25979 5.94732 9.13261 6 9 6H4C3.86739 6 3.74021 5.94732 3.64645 5.85355C3.55268 5.75979 3.5 5.63261 3.5 5.5C3.5 5.36739 3.55268 5.24021 3.64645 5.14645C3.74021 5.05268 3.86739 5 4 5ZM3.5 7.5C3.5 7.36739 3.55268 7.24021 3.64645 7.14645C3.74021 7.05268 3.86739 7 4 7H6C6.13261 7 6.25979 7.05268 6.35355 7.14645C6.44732 7.24021 6.5 7.36739 6.5 7.5C6.5 7.63261 6.44732 7.75979 6.35355 7.85355C6.25979 7.94732 6.13261 8 6 8H4C3.86739 8 3.74021 7.94732 3.64645 7.85355C3.55268 7.75979 3.5 7.63261 3.5 7.5Z" fill="white"/>
<path d="M14.0647 5.92491C13.7789 5.65217 13.399 5.5 13.0039 5.5C12.6089 5.5 12.229 5.65217 11.9432 5.92491L7.23316 10.6344C7.16475 10.7029 7.11768 10.7897 7.09766 10.8844L6.72166 12.6749C6.70634 12.7477 6.70745 12.823 6.72491 12.8953C6.74237 12.9676 6.77574 13.0351 6.82259 13.0928C6.86943 13.1506 6.92858 13.1972 6.99572 13.2292C7.06285 13.2612 7.13628 13.2779 7.21066 13.2779C7.24529 13.2779 7.27982 13.2742 7.31366 13.2669L9.10416 12.8904C9.19885 12.8704 9.2857 12.8233 9.35416 12.7549L14.0637 8.0459C14.203 7.90661 14.3135 7.74124 14.3889 7.55924C14.4643 7.37723 14.5031 7.18216 14.5031 6.98516C14.5031 6.78815 14.4643 6.59308 14.3889 6.41107C14.3135 6.22907 14.203 6.0637 14.0637 5.92441L14.0647 5.92491Z" fill="white"/>
</svg>
